<?xml version="1.0" standalone="no"?>
<!DOCTYPE svg PUBLIC "-//W3C//DTD SVG 20010904//EN"
 "http://www.w3.org/TR/2001/REC-SVG-20010904/DTD/svg10.dtd">
<svg version="1.0" xmlns="http://www.w3.org/2000/svg"
 width="512.000000pt" height="512.000000pt" viewBox="0 0 512.000000 512.000000"
 preserveAspectRatio="xMidYMid meet">
<metadata>
Created by potrace 1.14, written by Peter Selinger 2001-2017
</metadata>
<g transform="translate(0.000000,512.000000) scale(0.100000,-0.100000)"
fill="#000000" stroke="none">
<path d="M3095 4473 c-34 -17 -43 -28 -297 -363 -609 -806 -536 -713 -551
-698 -10 10 -233 276 -305 363 -155 189 -266 316 -281 325 -37 19 -94 9 -126
-24 -9 -10 -303 -361 -548 -656 -44 -52 -96 -115 -117 -140 -21 -25 -100 -119
-175 -210 -76 -91 -149 -178 -164 -195 -71 -80 -121 -149 -121 -164 0 -10 9
-26 21 -37 20 -18 41 -19 298 -21 152 -1 295 -2 318 -2 l42 -1 -109 -162 c-61
-90 -114 -170 -120 -178 -24 -35 -285 -424 -441 -655 -92 -137 -172 -261 -177
-275 -12 -33 0 -64 34 -87 25 -16 75 -17 761 -18 403 0 733 -3 733 -7 0 -4
-81 -132 -180 -285 -194 -300 -201 -316 -159 -374 12 -17 35 -32 57 -38 39
-10 3249 -13 3310 -4 18 3 46 19 63 35 41 42 39 86 -9 160 -28 45 -191 295
-278 428 -44 69 -184 285 -311 480 -126 195 -256 396 -288 445 -32 50 -78 120
-102 157 -24 37 -46 73 -48 80 -4 10 77 13 397 13 222 0 417 1 435 3 18 2 44
15 58 28 45 42 36 66 -88 230 -416 548 -721 949 -922 1213 -82 108 -158 207
-167 221 -9 14 -69 93 -133 175 -64 83 -126 164 -138 182 -41 60 -114 84 -172
56z"/>
</g>
</svg>
